<svg width="12" height="12" viewBox="0 0 12 12" fill="none" xmlns="http://www.w3.org/2000/svg">
<g clip-path="url(#clip0_5_75)">
<path d="M6.62607 10.6355C6.78024 10.7947 6.85584 11.0007 6.85286 11.2068C6.84987 11.4128 6.7693 11.6169 6.61015 11.7722L6.59821 11.7839C6.44105 11.9304 6.24012 12.0017 6.04019 11.9988C5.84026 11.9958 5.64032 11.9187 5.48813 11.7673C3.7315 10.0427 1.99377 8.28979 0.248081 6.55249C0.241118 6.5476 0.23515 6.54272 0.229182 6.53686C0.0750046 6.37768 -0.000592232 6.16967 0.00239182 5.96362C0.00537586 5.75756 0.0869408 5.55249 0.246092 5.39721L0.272948 5.37182C2.01068 3.65893 3.74642 1.94018 5.48913 0.23022C5.64132 0.0798292 5.84026 0.00268071 6.04019 -0.000248974C6.24012 -0.00317866 6.44105 0.0681104 6.59821 0.215571L6.61313 0.23022C6.7693 0.384517 6.84987 0.587642 6.85286 0.79272C6.85584 0.997798 6.78024 1.20483 6.62607 1.36401L1.92912 5.98022L6.62607 10.6355ZM11.7756 10.4402C11.9288 10.5984 12.0034 10.8044 12.0004 11.0095C11.9974 11.2156 11.9168 11.4197 11.7577 11.5749L11.7458 11.5867C11.5896 11.7332 11.3877 11.8044 11.1877 11.8025C10.9878 11.7996 10.7879 11.7224 10.6357 11.571C8.91585 9.88256 7.13933 8.22241 5.39662 6.55444C5.38966 6.54956 5.3827 6.5437 5.37573 6.53784C5.22156 6.37866 5.14596 6.17065 5.14894 5.9646C5.15193 5.75854 5.23349 5.55346 5.39264 5.39819C7.13237 3.74292 8.88104 2.0935 10.6247 0.440181L10.6367 0.427485C10.7889 0.277095 10.9878 0.200923 11.1877 0.197993C11.3877 0.195064 11.5886 0.266353 11.7458 0.412837L11.7607 0.427485C11.9168 0.581782 11.9974 0.785884 12.0004 0.989986C12.0034 1.19506 11.9278 1.40209 11.7736 1.56127L7.08064 5.97924L11.7756 10.4402Z" fill="#565656"/>
</g>
<defs>
<clipPath id="clip0_5_75">
<rect width="12" height="12" fill="white" transform="matrix(0 1 -1 0 12 0)"/>
</clipPath>
</defs>
</svg>
