<svg width="20" height="20" viewBox="0 0 20 20" fill="none" xmlns="http://www.w3.org/2000/svg">
<g clip-path="url(#clip0_5_65)">
<path d="M7.12877 3.49785H16.4263C17.2987 3.49785 18.0073 4.20643 18.0073 5.07884V18.419C18.0073 19.2914 17.2987 20 16.4263 20H7.12877C6.25635 20 5.54777 19.2914 5.54777 18.419V5.07884C5.55186 4.20643 6.26045 3.49785 7.12877 3.49785ZM6.65774 18.4149C6.65774 18.677 6.87073 18.89 7.13286 18.89H16.4304C16.6926 18.89 16.9055 18.677 16.9055 18.4149V5.07884C16.9055 4.81671 16.6926 4.60373 16.4304 4.60373H7.13286C6.87073 4.60373 6.65774 4.81671 6.65774 5.07884V18.4149Z" fill="#565656"/>
<path d="M3.57359 0H12.8712C13.7436 0 14.4521 0.708581 14.4521 1.581C14.4521 1.88818 14.2064 2.13393 13.8992 2.13393C13.592 2.13393 13.3463 1.88818 13.3463 1.581C13.3463 1.31886 13.1333 1.10588 12.8712 1.10588H3.57359C3.31146 1.10588 3.09847 1.31886 3.09847 1.581V14.9212C3.09847 15.1833 3.31146 15.3963 3.57359 15.3963C3.88078 15.3963 4.12653 15.642 4.12653 15.9492C4.12653 16.2564 3.88078 16.5021 3.57359 16.5021C2.70118 16.5021 1.99259 15.7936 1.99259 14.9212V1.581C1.99259 0.708581 2.70118 0 3.57359 0Z" fill="#565656"/>
</g>
<defs>
<clipPath id="clip0_5_65">
<rect width="20" height="20" fill="white" transform="matrix(-1 0 0 1 20 0)"/>
</clipPath>
</defs>
</svg>
